HIERARCHY
ROOT pelvis
{
  OFFSET 0 100 0
  CHANNELS 6 Xposition Yposition Zposition Zrotation Xrotation Yrotation
  JOINT pelvis_right_femur
  {
    OFFSET -10.78128 -3.44521 -0.5502486
    CHANNELS 3 Zrotation Xrotation Yrotation
    JOINT right_femur_tibia
    {
      OFFSET -0.8047443 -44.0398 -0.1307829
      CHANNELS 3 Zrotation Xrotation Yrotation
      JOINT right_tibia_foot
      {
        OFFSET 3.006224 -47.83518 -5
        CHANNELS 3 Zrotation Xrotation Yrotation
        End Site
        {
          OFFSET 0 -5 15
        }
      }
    }
  }
  JOINT pelvis_left_femur
  {
    OFFSET 10.78128 -3.44521 -0.5502486
    CHANNELS 3 Zrotation Xrotation Yrotation
    JOINT left_femur_tibia
    {
      OFFSET 0.8047443 -44.0398 -0.1307829
      CHANNELS 3 Zrotation Xrotation Yrotation
      JOINT left_tibia_foot
      {
        OFFSET -4.370144 -48.10324 -4.275266
        CHANNELS 3 Zrotation Xrotation Yrotation
        End Site
        {
          OFFSET 0 -5 15
        }
      }
    }
  }
  JOINT pelvis_spine1
  {
    OFFSET 0 6.468898 -3.129235
    CHANNELS 3 Zrotation Xrotation Yrotation
    JOINT spine1
    {
      OFFSET 0 23.15396 4.99043
      CHANNELS 3 Zrotation Xrotation Yrotation
      JOINT spine2
      {
        OFFSET 0 20.79997 -5.064912
        CHANNELS 3 Zrotation Xrotation Yrotation
        JOINT neck
        {
          OFFSET 0 14.38658 9.616178
          CHANNELS 3 Zrotation Xrotation Yrotation
          End Site
          {
            OFFSET 0 20 0
          }
        }
      }
      JOINT right_manubrium
      {
        OFFSET -5.722621 16.35077 3.967754
        CHANNELS 3 Zrotation Xrotation Yrotation
        JOINT right_clavicle
        {
          OFFSET -13.16364 1.694482 -4.693211
          CHANNELS 3 Zrotation Xrotation Yrotation
          JOINT right_humerus
          {
            OFFSET -28.5034 -0.3100689 -2.792744
            CHANNELS 3 Zrotation Xrotation Yrotation
            JOINT right_radius
            {
              OFFSET -25.15693 0.02248979 -1.271978
              CHANNELS 3 Zrotation Xrotation Yrotation
              End Site
              {
                OFFSET -15 0 0
              }
            }
          }
        }
      }
      JOINT left_manubrium
      {
        OFFSET 5.722621 16.35077 3.967754
        CHANNELS 3 Zrotation Xrotation Yrotation
        JOINT left_clavicle
        {
          OFFSET 13.16364 1.694482 -4.693211
          CHANNELS 3 Zrotation Xrotation Yrotation
          JOINT left_humerus
          {
            OFFSET 29.39168 -1.063119 -2.237045
            CHANNELS 3 Zrotation Xrotation Yrotation
            JOINT left_radius
            {
              OFFSET 24.59957 -0.9528479 0.9047498
              CHANNELS 3 Zrotation Xrotation Yrotation
              End Site
              {
                OFFSET 15 -0 -0
              }
            }
          }
        }
      }
    }
  }
}
MOTION
Frames: 15
Frame Time: 0.0416666666667
0 103.5113 0 0.791157 -0.9378716 0.06370923 3.233876 -15.89908 8.721613 -0 39.24127 -0 -6.708167 -15.9432 -2.820771 -7.307023 6.23539 -23.53402 -0 4.42319 -0 7.165284 -18.24297 26.48916 -1.188508 -2.432676 4.090829 2.867547 10.25875 -8.099751 0.6289162 21.37301 6.648148 4.3412 -26.21294 7.231647 4.263303 -20.3982 11.94276 88.05104 32.86537 -20.80794 -0 0 13.60044 -9.725065 7.898224 5.790144 6.090406 -22.87602 -3.009072 -94.6114 24.52889 24.12709 0 0 -16.62822 8.683742 17.88615 3.718044
0.3749195 103.557 0.7384335 0.7585529 -0.8283505 0.1277406 3.45187 -17.69806 8.82965 -0 39.39703 -0 -6.770849 -15.56992 -3.059874 -7.308056 7.966553 -23.77536 -0 5.317053 -0 7.179256 -18.6493 26.32293 -1.170432 -2.488199 3.857787 2.983442 10.28875 -8.320941 0.6021203 21.3871 6.683269 4.380787 -26.34969 7.249632 4.198738 -20.13804 11.92715 88.71235 32.75711 -21.71782 -0 0 12.8405 -9.418448 7.745421 5.477926 6.245549 -23.26965 -3.114357 -94.14232 24.44225 23.2997 0 0 -17.38633 9.296215 18.06837 2.960459
0.6761673 103.5696 1.999219 0.708312 -1.045751 0.3133894 3.403674 -20.47771 7.890494 -0 38.53413 -0 -6.423419 -13.09624 -3.474974 -7.04727 10.81224 -22.68764 -0 6.174537 -0 6.188156 -19.45029 24.80559 -1.256311 -2.322179 3.911562 2.915421 10.153 -8.269465 0.6444779 21.35515 6.7387 4.302263 -25.98696 7.316031 4.342876 -19.83321 11.8699 88.43006 32.97787 -21.52558 -0 0 12.8755 -9.886745 8.23987 5.696015 6.156622 -22.98028 -3.045973 -93.7565 24.81988 22.82053 0 0 -17.81734 8.340321 17.54567 4.158726
0.9320538 103.4692 3.509183 0.6102802 -0.9665063 0.5169092 3.511397 -22.02608 7.262074 -0 36.29682 -0 -6.531059 -12.26058 -3.539828 -6.787943 12.00394 -22.04659 -0 6.003641 -0 5.786499 -19.88252 23.99625 -1.285481 -2.271098 3.894082 2.910242 10.10234 -8.282951 0.6562419 21.34819 6.764108 4.28139 -25.88518 7.344952 4.389047 -19.68416 11.84542 88.42399 33.05289 -21.59071 -0 0 12.7757 -9.988638 8.382279 5.72192 6.148285 -22.93012 -3.031433 -93.56154 24.95645 22.53546 0 0 -18.0728 8.088565 17.39316 4.478208
1.126455 103.1448 5.414629 0.4436681 -0.8326416 0.7393244 3.645705 -24.038 6.222309 -0 32.32539 -0 -6.755263 -11.14923 -3.551315 -6.365366 13.39146 -20.96261 -0 5.494313 -0 5.158294 -20.43999 22.74952 -1.347032 -2.178268 3.827364 2.92273 9.967887 -8.323446 0.6796119 21.3493 6.818966 4.253324 -25.74872 7.417033 4.498792 -19.3661 11.78771 88.45003 33.26613 -21.79125 -0 0 12.52039 -10.0339 8.574511 5.705227 6.148485 -22.83767 -2.978085 -93.2249 25.30831 21.9767 0 0 -18.566 7.638836 17.17284 5.05981
1.268805 102.6077 7.718508 0.2916747 -0.7517301 0.9820426 3.716256 -25.75581 5.207683 -0 28.61255 -0 -6.931909 -10.0514 -3.558342 -5.986432 14.56944 -19.86716 -0 5.140995 -0 4.488724 -20.89007 21.52481 -1.39438 -2.111363 3.74721 2.947071 9.85947 -8.378985 0.6954971 21.35374 6.866445 4.236822 -25.66358 7.477926 4.582154 -19.08581 11.7389 88.54265 33.43307 -22.05037 -0 0 12.23584 -10.0167 8.698774 5.65132 6.166211 -22.80394 -2.942641 -92.91775 25.587 21.45155 0 0 -19.02833 7.350199 17.02784 5.43836
1.354703 101.8486 10.5316 0.1298081 -0.747566 1.25469 3.720004 -27.63251 3.994408 -0 24.58935 -0 -7.044824 -8.584543 -3.609192 -5.591202 15.94263 -18.49737 -0 5.114134 -0 3.567636 -21.32829 19.9996 -1.449245 -2.036628 3.629969 2.986919 9.731299 -8.464953 0.7121101 21.36094 6.926312 4.221045 -25.57668 7.552695 4.676966 -18.72792 11.67856 88.71549 33.62415 -22.44382 -0 0 11.82767 -9.962435 8.829912 5.556495 6.201632 -22.79833 -2.908571 -92.50943 25.91058 20.74864 0 0 -19.64533 7.061645 16.87425 5.821416
1.388485 100.8861 13.9287 -0.02338071 -0.8479964 1.560804 3.650301 -29.36031 2.691411 -0 20.63104 -0 -7.070056 -6.887143 -3.702629 -5.223877 17.27876 -16.93744 -0 5.591436 -0 2.442366 -21.63945 18.29894 -1.499221 -1.968341 3.497497 3.032955 9.618507 -8.569919 0.7251786 21.36608 6.9872 4.206942 -25.49246 7.62364 4.757456 -18.35696 11.62009 88.95309 33.7792 -22.914 -0 0 11.3593 -9.911716 8.960953 5.444935 6.249731 -22.83597 -2.893379 -92.04488 26.18728 19.96569 0 0 -20.33237 6.840568 16.72706 6.11812
1.373363 99.75973 18.00999 -0.1640901 -1.098784 1.901499 3.518206 -30.90307 1.29621 -0 16.7804 -0 -6.97428 -4.879442 -3.875265 -4.892739 18.59124 -15.11897 -0 6.962777 -0 1.034563 -21.74707 16.36044 -1.547426 -1.89921 3.348762 3.082847 9.519106 -8.696526 0.7359879 21.36657 7.052288 4.190376 -25.39038 7.692925 4.826608 -17.95276 11.56119 89.25822 33.89704 -23.47139 -0 0 10.81549 -9.894839 9.120789 5.325378 6.309142 -22.91407 -2.899602 -91.48565 26.4196 19.05196 0 0 -21.13436 6.655413 16.55714 6.367646
1.31843 98.56075 22.83471 -0.2701608 -1.545497 2.267039 3.37819 -31.93257 -0.01777286 -0 13.49625 -0 -6.723062 -2.712381 -4.153752 -4.631931 19.64776 -13.13438 -0 9.704011 -0 -0.6054866 -21.48852 14.33071 -1.588579 -1.833535 3.201313 3.128037 9.450584 -8.833462 0.7433715 21.35891 7.115312 4.169697 -25.26368 7.751199 4.87285 -17.55143 11.50903 89.60339 33.94822 -24.0617 -0 0 10.24637 -9.949752 9.317304 5.221783 6.372629 -23.0295 -2.934477 -90.86105 26.56152 18.07109 0 0 -21.99718 6.518257 16.35986 6.551154
1.237009 97.44639 28.40612 -0.3158461 -2.242713 2.632228 3.335908 -32.03778 -1.008292 -0 11.31871 -0 -6.280424 -0.5947054 -4.571609 -4.455763 20.14334 -11.10537 -0 14.46434 -0 -2.400056 -20.66313 12.41034 -1.619565 -1.771686 3.08197 3.155385 9.425261 -8.959349 0.7479998 21.33977 7.169192 4.14136 -25.09916 7.790077 4.890047 -17.19612 11.47021 89.92738 33.91682 -24.58905 -0 0 9.733955 -10.12422 9.564993 5.171371 6.42571 -23.15779 -2.99808 -90.22267 26.58451 17.12276 0 0 -22.83494 6.406124 16.12007 6.694305
1.144952 96.64059 34.618 -0.2772217 -3.207786 2.948789 3.537576 -30.68149 -1.346971 -0 10.81384 -0 -5.659421 1.058147 -5.121749 -4.340176 19.60847 -9.271168 -0 21.76741 -0 -4.156638 -19.07431 10.94626 -1.635321 -1.71645 3.038886 3.143406 9.45811 -9.031987 0.7514259 21.30643 7.200417 4.10185 -24.88802 7.7965 4.871744 -16.97189 11.4555 90.11069 33.79326 -24.8704 -0 0 9.43812 -10.47307 9.86762 5.233409 6.442087 -23.24652 -3.082216 -89.69289 26.46366 16.42279 0 0 -23.45911 6.279234 15.82954 6.84316
1.051142 96.38742 41.23162 -0.1588776 -4.383715 3.138761 4.085429 -27.40347 -0.8008976 -0 12.08076 -0 -4.977998 1.698762 -5.716061 -4.198758 17.5309 -7.893401 -0 31.71792 -0 -5.637801 -16.61762 10.29693 -1.632618 -1.666972 3.136066 3.063076 9.558931 -8.992275 0.7574207 21.25665 7.192819 4.045791 -24.61591 7.757318 4.817474 -16.98305 11.47575 89.98588 33.58385 -24.6574 -0 0 9.574756 -11.06385 10.23099 5.488012 6.384732 -23.21219 -3.168376 -89.43203 26.19773 16.25399 0 0 -23.61795 6.056479 15.4704 7.096512
0.946474 96.84963 47.89209 -0.01730702 -5.589478 3.096068 4.933017 -22.13051 0.5766532 -0 14.35496 -0 -4.492765 0.7864557 -6.157812 -3.917125 13.58728 -7.162341 -0 43.44319 -0 -6.619432 -13.41978 10.68067 -1.611616 -1.618228 3.426303 2.889045 9.728235 -8.788795 0.7706229 21.18959 7.134373 3.967781 -24.26577 7.664972 4.732491 -17.30737 11.53691 89.41388 33.29892 -23.74398 -0 0 10.3231 -11.95468 10.66079 6.005541 6.221662 -22.97545 -3.23588 -89.56406 25.80372 16.83749 0 0 -23.10653 5.64956 15.01809 7.56462
0.8085855 97.98996 54.23958 0.05557444 -6.5594 2.71806 5.861838 -15.45204 2.353748 -0 16.16142 -0 -4.465717 -1.813533 -6.227585 -3.432651 7.97055 -7.036479 -0 54.74231 -0 -6.997333 -9.93503 11.97879 -1.57706 -1.562919 3.906751 2.619407 9.952952 -8.418601 0.7937247 21.10786 7.02733 3.866434 -23.82825 7.525467 4.624936 -17.92711 11.63351 88.40385 32.93626 -22.13755 -0 0 11.67609 -13.14954 11.15451 6.792359 5.952123 -22.52225 -3.276399 -90.0711 25.30382 18.14088 0 0 -21.9372 5.029835 14.45595 8.286854
